<svg width="29" height="28" viewBox="0 0 29 28" fill="none" xmlns="http://www.w3.org/2000/svg">
<path d="M28.5 14C28.5 21.4395 22.2487 27.5 14.5 27.5C6.75133 27.5 0.5 21.4395 0.5 14C0.5 6.56055 6.75133 0.5 14.5 0.5C22.2487 0.5 28.5 6.56055 28.5 14Z" stroke="#2B7DF7"/>
<path d="M12.8124 16.2604L10.9137 14.2362C10.8115 14.127 10.6727 14.0656 10.528 14.0656C10.3832 14.0656 10.2445 14.127 10.1422 14.2362C9.92883 14.4637 9.92883 14.8312 10.1422 15.0587L12.4294 17.4971C12.6428 17.7246 12.9875 17.7246 13.2009 17.4971L18.99 11.3254C19.2034 11.0979 19.2034 10.7304 18.99 10.5029C18.8877 10.3937 18.7489 10.3323 18.6042 10.3323C18.4595 10.3323 18.3207 10.3937 18.2185 10.5029L12.8124 16.2604Z" fill="#2B7DF7"/>
</svg>
