<svg width="120" height="38" viewBox="0 0 120 38" fill="none" xmlns="http://www.w3.org/2000/svg">
<path d="M43.786 25.9902H40.726V15.6762H37.396V13.1382H47.116V15.6762H43.786V25.9902ZM51.8257 15.9282C53.2177 15.9282 54.3217 16.3122 55.1377 17.0802C55.9537 17.8362 56.3617 18.9522 56.3617 20.4282V21.8322H50.1157C50.1397 22.4802 50.3497 22.9962 50.7457 23.3802C51.1417 23.7642 51.7057 23.9562 52.4377 23.9562C53.0617 23.9562 53.6317 23.8962 54.1477 23.7762C54.6757 23.6562 55.2157 23.4642 55.7677 23.2002V25.4502C55.2757 25.7022 54.7537 25.8822 54.2017 25.9902C53.6617 26.1102 52.9897 26.1702 52.1857 26.1702C51.1897 26.1702 50.3017 25.9902 49.5217 25.6302C48.7537 25.2702 48.1477 24.7182 47.7037 23.9742C47.2717 23.2182 47.0557 22.2642 47.0557 21.1122C47.0557 19.9482 47.2537 18.9822 47.6497 18.2142C48.0457 17.4462 48.5977 16.8762 49.3057 16.5042C50.0257 16.1202 50.8657 15.9282 51.8257 15.9282ZM51.8797 18.0342C51.4117 18.0342 51.0217 18.1842 50.7097 18.4842C50.4097 18.7722 50.2297 19.2342 50.1697 19.8702H53.5717C53.5597 19.3542 53.4157 18.9222 53.1397 18.5742C52.8637 18.2142 52.4437 18.0342 51.8797 18.0342ZM65.3756 25.9902H57.4016V24.2262L61.7576 18.4302H57.6536V16.1082H65.1956V18.0162L61.0016 23.6682H65.3756V25.9902ZM76.3749 21.0222C76.3749 22.6782 75.9369 23.9502 75.0609 24.8382C74.1969 25.7262 73.0089 26.1702 71.4969 26.1702C70.5609 26.1702 69.7269 25.9722 68.9949 25.5762C68.2749 25.1682 67.7049 24.5862 67.2849 23.8302C66.8769 23.0622 66.6729 22.1262 66.6729 21.0222C66.6729 19.3902 67.1049 18.1362 67.9689 17.2602C68.8449 16.3722 70.0389 15.9282 71.5509 15.9282C72.4869 15.9282 73.3149 16.1262 74.0349 16.5222C74.7669 16.9182 75.3369 17.4942 75.7449 18.2502C76.1649 19.0062 76.3749 19.9302 76.3749 21.0222ZM69.7509 21.0222C69.7509 21.9462 69.8889 22.6482 70.1649 23.1282C70.4409 23.5962 70.8969 23.8302 71.5329 23.8302C72.1569 23.8302 72.6069 23.5962 72.8829 23.1282C73.1589 22.6482 73.2969 21.9462 73.2969 21.0222C73.2969 20.1102 73.1589 19.4262 72.8829 18.9702C72.6069 18.5022 72.1509 18.2682 71.5149 18.2682C70.8909 18.2682 70.4409 18.5022 70.1649 18.9702C69.8889 19.4262 69.7509 20.1102 69.7509 21.0222ZM85.572 23.0022C85.572 23.9742 85.23 24.7482 84.546 25.3242C83.874 25.8882 82.818 26.1702 81.378 26.1702C80.682 26.1702 80.07 26.1282 79.542 26.0442C79.026 25.9602 78.504 25.8102 77.976 25.5942V23.1462C78.552 23.4102 79.152 23.6142 79.776 23.7582C80.4 23.8902 80.928 23.9562 81.36 23.9562C81.816 23.9562 82.146 23.8962 82.35 23.7762C82.554 23.6562 82.656 23.4882 82.656 23.2722C82.656 23.1162 82.602 22.9782 82.494 22.8582C82.398 22.7382 82.194 22.6062 81.882 22.4622C81.582 22.3062 81.132 22.1022 80.532 21.8502C79.944 21.5982 79.458 21.3402 79.074 21.0762C78.702 20.8122 78.42 20.5002 78.228 20.1402C78.048 19.7682 77.958 19.3062 77.958 18.7542C77.958 17.8182 78.318 17.1162 79.038 16.6482C79.77 16.1682 80.736 15.9282 81.936 15.9282C82.572 15.9282 83.172 15.9942 83.736 16.1262C84.3 16.2582 84.882 16.4622 85.482 16.7382L84.618 18.7902C84.126 18.5742 83.646 18.4002 83.178 18.2682C82.722 18.1362 82.308 18.0702 81.936 18.0702C81.24 18.0702 80.892 18.2502 80.892 18.6102C80.892 18.7422 80.94 18.8682 81.036 18.9882C81.144 19.0962 81.342 19.2162 81.63 19.3482C81.93 19.4802 82.362 19.6662 82.926 19.9062C83.49 20.1342 83.97 20.3802 84.366 20.6442C84.762 20.8962 85.062 21.2082 85.266 21.5802C85.47 21.9522 85.572 22.4262 85.572 23.0022ZM96.3875 23.4162H94.9115V25.9902H91.9055V23.4162H86.5775V21.2202L92.0855 13.1382H94.9115V21.0762H96.3875V23.4162ZM91.9055 19.2222C91.9055 18.9822 91.9115 18.6882 91.9235 18.3402C91.9355 17.9922 91.9475 17.6742 91.9595 17.3862C91.9715 17.0862 91.9835 16.9062 91.9955 16.8462H91.9055C91.7975 17.0982 91.6895 17.3262 91.5815 17.5302C91.4735 17.7222 91.3415 17.9382 91.1855 18.1782L89.2595 21.0762H91.9055V19.2222ZM102.402 15.9102C103.686 15.9102 104.682 16.2102 105.39 16.8102C106.098 17.4102 106.452 18.2862 106.452 19.4382V25.9902H104.346L103.752 24.6582H103.68C103.26 25.1982 102.816 25.5882 102.348 25.8282C101.88 26.0562 101.238 26.1702 100.422 26.1702C99.5457 26.1702 98.8197 25.9122 98.2437 25.3962C97.6677 24.8802 97.3797 24.0822 97.3797 23.0022C97.3797 21.9582 97.7457 21.1842 98.4777 20.6802C99.2217 20.1642 100.308 19.8762 101.736 19.8162L103.428 19.7622V19.4742C103.428 18.9942 103.302 18.6462 103.05 18.4302C102.81 18.2142 102.474 18.1062 102.042 18.1062C101.61 18.1062 101.16 18.1782 100.692 18.3222C100.224 18.4542 99.7497 18.6222 99.2697 18.8262L98.3517 16.8102C98.8917 16.5222 99.5037 16.3002 100.188 16.1442C100.872 15.9882 101.61 15.9102 102.402 15.9102ZM102.51 21.5262C101.754 21.5502 101.226 21.6882 100.926 21.9402C100.626 22.1802 100.476 22.5102 100.476 22.9302C100.476 23.3022 100.584 23.5722 100.8 23.7402C101.016 23.9082 101.292 23.9922 101.628 23.9922C102.132 23.9922 102.558 23.8422 102.906 23.5422C103.254 23.2302 103.428 22.8102 103.428 22.2822V21.4902L102.51 21.5262ZM112.055 25.9902H109.013V12.3102H112.055V25.9902ZM117.697 25.9902H114.655V12.3102H117.697V25.9902Z" fill="white"/>
<path d="M14.5412 15.7565C14.5219 15.747 14.5179 15.718 14.5296 15.7001L19.6617 9.33691V8.65719C19.6617 8.54426 19.5879 8.453 19.4967 8.453H10.0519V4.61926L10.0509 3.46987L6.56634 4.37305V5.02645H6.76247C6.76247 5.02645 7.61585 5.02645 7.61585 6.08101V8.45311H4.91193C4.8585 8.45311 4.81482 8.50714 4.81482 8.57324V10.0421H7.6149V18.1985C7.6149 20.7603 8.94114 22.5306 11.2761 22.2964C11.7722 22.2471 12.2296 22.0069 12.6198 21.6959C12.7936 21.5578 12.8995 21.3187 12.8995 21.063V20.2631C12.1392 20.884 11.5034 20.8552 11.5034 20.8552C10.0247 20.8552 10.0528 18.5384 10.0528 18.5384V10.0409H16.8501L11.9539 16.1411C11.9432 16.9398 11.9334 17.5691 11.9334 17.5811C11.9334 17.5992 11.9431 17.6184 11.9587 17.6207C16.4462 18.5612 17.6559 22.1452 17.6559 23.1972C17.6559 23.1972 18.1384 28.2765 14.0306 28.6284C14.0306 28.6284 11.3393 28.7773 10.8674 27.443C10.8509 27.3973 10.8645 27.3445 10.9024 27.3241C11.3499 27.0707 11.6519 26.5782 11.6519 25.9141C11.6519 24.9232 11.1664 24.1197 10.1509 24.1197C9.3227 24.1197 8.64983 24.9232 8.64983 25.9141C8.64983 25.9141 8.26637 30.191 14.0306 30.0697C20.6298 29.9315 20.2171 23.0939 20.2171 23.0939C19.9938 18.202 15.0179 15.9787 14.5412 15.7565Z" fill="white"/>
<path d="M13.0266 1.41093C9.33561 1.41093 5.64463 1.42678 1.95386 1.39508C1.33911 1.38955 1.17378 1.61144 1.17586 2.34254C1.1977 8.75836 1.18855 15.1749 1.18959 21.5913C1.18959 21.8199 1.19312 22.0501 1.20685 22.2781C1.67664 29.9402 7.07357 35.8821 13.3182 35.6134C19.7801 35.3356 24.8174 29.0969 24.8362 21.3165C24.8513 15.0023 24.828 8.68766 24.8545 2.37323C24.8574 1.59257 24.67 1.38829 24.0361 1.39383C20.3666 1.42804 16.6964 1.41093 13.0266 1.41093ZM13.0058 0.0139013C17.0536 0.0139013 21.1015 0.0133989 25.15 0.0146568C25.9924 0.0146568 25.9956 0.0184283 25.9956 1.00614C25.9966 7.85241 26.0062 14.6994 25.9935 21.546C25.9804 28.6463 21.7874 34.9547 16.0176 36.5933C10.1883 38.2489 4.12835 34.8793 1.4589 28.513C0.498306 26.2214 0.014994 23.7976 0.0145781 21.2338C0.0120825 14.463 0.0233137 7.69241 2.15049e-05 0.922867C-0.00247409 0.160073 0.211937 -0.00371058 0.799025 6.31404e-05C4.86788 0.0269823 8.93653 0.0139013 13.0058 0.0139013Z" fill="white"/>
</svg>
